<?xml version="1.0" encoding="iso-8859-1"?>
<!-- Generator: Adobe Illustrator 21.0.0, SVG Export Plug-In . SVG Version: 6.00 Build 0)  -->
<svg version="1.1" id="Capa_1" xmlns="http://www.w3.org/2000/svg" xmlns:xlink="http://www.w3.org/1999/xlink" x="0px" y="0px"
	 viewBox="0 0 512 512" style="enable-background:new 0 0 512 512;" xml:space="preserve">
<linearGradient id="SVGID_1_" gradientUnits="userSpaceOnUse" x1="74.9807" y1="439.0193" x2="437.0193" y2="76.9807" gradientTransform="matrix(1 0 0 -1 0 514)">
	<stop  offset="0" style="stop-color:#FDE472"/>
	<stop  offset="1" style="stop-color:#FFAB1F"/>
</linearGradient>
<circle style="fill:url(#SVGID_1_);" cx="256" cy="256" r="256"/>
<linearGradient id="SVGID_2_" gradientUnits="userSpaceOnUse" x1="74.774" y1="257.9998" x2="437.226" y2="257.9998" gradientTransform="matrix(1 0 0 -1 0 514)">
	<stop  offset="0" style="stop-color:#E6974A"/>
	<stop  offset="1" style="stop-color:#984B04"/>
</linearGradient>
<path style="fill:url(#SVGID_2_);" d="M437.226,221.354C395.294,59.553,256,63,256,63S116.706,59.553,74.774,221.354l32.228-9.724
	c0,0-61.426,106.985,52.593,201.765l0.597-41.071c0,0,39.315,52.929,95.809,76.682c56.493-23.753,95.809-76.682,95.809-76.682
	l0.597,41.071C466.425,318.616,405,211.63,405,211.63L437.226,221.354z"/>
<linearGradient id="SVGID_3_" gradientUnits="userSpaceOnUse" x1="152.3294" y1="457.2232" x2="410.6894" y2="95.1842" gradientTransform="matrix(1 0 0 -1 0 514)">
	<stop  offset="0" style="stop-color:#FDE472"/>
	<stop  offset="1" style="stop-color:#FFAB1F"/>
</linearGradient>
<path style="fill:url(#SVGID_3_);" d="M354.987,129.686c-25.295-11.528-38.14,13.983-42.593,25.859
	c-17.216-13.244-37.326-21.67-56.36-21.67c-19.047,0-39.182,8.437-56.419,21.696c-4.443-11.864-17.289-37.421-42.602-25.885
	c-31.67,14.433-49.384,71.523,3.398,77.007c-3.424,9.023-5.342,18.303-5.342,27.476c0,27.839,9.603,57.92,37.579,80.789
	c9.748,7.968,15.56,19.894,15.56,32.622v0.451c0,15.576,12.516,28.321,27.814,28.321h39.957c15.298,0,27.814-12.744,27.814-28.321
	v-0.451c0-12.728,5.812-24.654,15.56-32.622c27.976-22.869,37.579-52.95,37.579-80.789c0-9.173-1.915-18.454-5.336-27.477
	C404.37,201.205,386.656,144.118,354.987,129.686z"/>
<g>
	
		<linearGradient id="SVGID_4_" gradientUnits="userSpaceOnUse" x1="158.33" y1="289.32" x2="335.32" y2="289.32" gradientTransform="matrix(1 0 0 -1 0 514)">
		<stop  offset="0" style="stop-color:#56545B"/>
		<stop  offset="1" style="stop-color:#0F0F11"/>
	</linearGradient>
	<circle style="fill:url(#SVGID_4_);" cx="214.74" cy="224.68" r="14.583"/>
	
		<linearGradient id="SVGID_5_" gradientUnits="userSpaceOnUse" x1="158.33" y1="289.32" x2="335.32" y2="289.32" gradientTransform="matrix(1 0 0 -1 0 514)">
		<stop  offset="0" style="stop-color:#56545B"/>
		<stop  offset="1" style="stop-color:#0F0F11"/>
	</linearGradient>
	<circle style="fill:url(#SVGID_5_);" cx="297.26" cy="224.68" r="14.583"/>
	
		<linearGradient id="SVGID_6_" gradientUnits="userSpaceOnUse" x1="158.33" y1="176.4605" x2="335.32" y2="176.4605" gradientTransform="matrix(1 0 0 -1 0 514)">
		<stop  offset="0" style="stop-color:#56545B"/>
		<stop  offset="1" style="stop-color:#0F0F11"/>
	</linearGradient>
	<rect x="224.47" y="331.26" style="fill:url(#SVGID_6_);" width="63.07" height="12.559"/>
	
		<linearGradient id="SVGID_7_" gradientUnits="userSpaceOnUse" x1="158.33" y1="221.453" x2="335.32" y2="221.453" gradientTransform="matrix(1 0 0 -1 0 514)">
		<stop  offset="0" style="stop-color:#56545B"/>
		<stop  offset="1" style="stop-color:#0F0F11"/>
	</linearGradient>
	<path style="fill:url(#SVGID_7_);" d="M269.817,276.197h-13.815h-0.004h-13.815c-6.636,0-10.604,8.442-6.832,14.627
		c5.309,8.706,12.836,18.07,20.648,18.073l0,0c0.001,0,0.001,0,0.002,0c0.001,0,0.001,0,0.002,0l0,0
		c7.812-0.003,15.338-9.367,20.647-18.073C280.422,284.64,276.454,276.197,269.817,276.197z"/>
	
		<linearGradient id="SVGID_8_" gradientUnits="userSpaceOnUse" x1="158.33" y1="235.828" x2="335.32" y2="235.828" gradientTransform="matrix(1 0 0 -1 0 514)">
		<stop  offset="0" style="stop-color:#56545B"/>
		<stop  offset="1" style="stop-color:#0F0F11"/>
	</linearGradient>
	<polygon style="fill:url(#SVGID_8_);" points="211.267,287.667 154.197,276.565 155.732,268.677 212.802,279.78 	"/>
	
		<linearGradient id="SVGID_9_" gradientUnits="userSpaceOnUse" x1="158.33" y1="207.075" x2="335.32" y2="207.075" gradientTransform="matrix(1 0 0 -1 0 514)">
		<stop  offset="0" style="stop-color:#56545B"/>
		<stop  offset="1" style="stop-color:#0F0F11"/>
	</linearGradient>
	<polygon style="fill:url(#SVGID_9_);" points="155.732,316.42 212.802,305.317 211.267,297.43 154.197,308.533 	"/>
	
		<linearGradient id="SVGID_10_" gradientUnits="userSpaceOnUse" x1="158.33" y1="235.828" x2="335.32" y2="235.828" gradientTransform="matrix(1 0 0 -1 0 514)">
		<stop  offset="0" style="stop-color:#56545B"/>
		<stop  offset="1" style="stop-color:#0F0F11"/>
	</linearGradient>
	<polygon style="fill:url(#SVGID_10_);" points="300.733,287.667 357.803,276.565 356.268,268.677 299.198,279.78 	"/>
	
		<linearGradient id="SVGID_11_" gradientUnits="userSpaceOnUse" x1="158.33" y1="207.075" x2="335.32" y2="207.075" gradientTransform="matrix(1 0 0 -1 0 514)">
		<stop  offset="0" style="stop-color:#56545B"/>
		<stop  offset="1" style="stop-color:#0F0F11"/>
	</linearGradient>
	<polygon style="fill:url(#SVGID_11_);" points="356.268,316.42 299.198,305.317 300.733,297.43 357.803,308.533 	"/>
</g>
<g>
	
		<linearGradient id="SVGID_12_" gradientUnits="userSpaceOnUse" x1="160" y1="342.9377" x2="342.79" y2="342.9377" gradientTransform="matrix(1 0 0 -1 0 514)">
		<stop  offset="0" style="stop-color:#E6974A"/>
		<stop  offset="1" style="stop-color:#984B04"/>
	</linearGradient>
	<path style="fill:url(#SVGID_12_);" d="M189.952,163.792c-9.958,9.351-18.48,20.307-24.613,31.995
		c-32.102-3.7-21.137-38.752-1.622-47.64C179.12,141.122,187.081,156.304,189.952,163.792z"/>
	
		<linearGradient id="SVGID_13_" gradientUnits="userSpaceOnUse" x1="160" y1="342.9384" x2="342.79" y2="342.9384" gradientTransform="matrix(1 0 0 -1 0 514)">
		<stop  offset="0" style="stop-color:#E6974A"/>
		<stop  offset="1" style="stop-color:#984B04"/>
	</linearGradient>
	<path style="fill:url(#SVGID_13_);" d="M346.67,195.786c-6.124-11.696-14.656-22.661-24.613-32.021
		c2.888-7.506,10.84-22.634,26.227-15.618C367.798,157.035,378.763,192.078,346.67,195.786z"/>
</g>
<g>
</g>
<g>
</g>
<g>
</g>
<g>
</g>
<g>
</g>
<g>
</g>
<g>
</g>
<g>
</g>
<g>
</g>
<g>
</g>
<g>
</g>
<g>
</g>
<g>
</g>
<g>
</g>
<g>
</g>
</svg>
